<mxfile host="app.diagrams.net" modified="2022-06-04T00:44:25.191Z" agent="5.0 (X11; Linux x86_64) AppleWebKit/537.36 (KHTML, like Gecko) Chrome/102.0.0.0 Safari/537.36" etag="tIbsDjW0GzU3QlY0Jfi3" version="19.0.0" type="github">
  <diagram id="9TpMNjyulb1LSvicOwjP" name="Page-1">
    <mxGraphModel dx="1422" dy="805" grid="1" gridSize="10" guides="1" tooltips="1" connect="1" arrows="1" fold="1" page="1" pageScale="1" pageWidth="850" pageHeight="1100" math="0" shadow="0">
      <root>
        <mxCell id="0" />
        <mxCell id="1" parent="0" />
        <mxCell id="-IljqOQ8mpEZ_WBwHaB5-1" value="&lt;b&gt;&lt;font style=&quot;font-size: 36px;&quot;&gt;Udagram&lt;/font&gt;&lt;/b&gt;" style="rounded=0;whiteSpace=wrap;html=1;" vertex="1" parent="1">
          <mxGeometry x="285" y="160" width="280" height="60" as="geometry" />
        </mxCell>
        <mxCell id="-IljqOQ8mpEZ_WBwHaB5-2" value="" style="endArrow=none;html=1;rounded=0;fontSize=36;entryX=0.5;entryY=1;entryDx=0;entryDy=0;" edge="1" parent="1" target="-IljqOQ8mpEZ_WBwHaB5-1">
          <mxGeometry width="50" height="50" relative="1" as="geometry">
            <mxPoint x="425" y="320" as="sourcePoint" />
            <mxPoint x="420" y="230" as="targetPoint" />
          </mxGeometry>
        </mxCell>
        <mxCell id="-IljqOQ8mpEZ_WBwHaB5-13" value="" style="edgeStyle=orthogonalEdgeStyle;rounded=0;orthogonalLoop=1;jettySize=auto;html=1;fontSize=36;" edge="1" parent="1" source="-IljqOQ8mpEZ_WBwHaB5-10" target="-IljqOQ8mpEZ_WBwHaB5-11">
          <mxGeometry relative="1" as="geometry" />
        </mxCell>
        <mxCell id="-IljqOQ8mpEZ_WBwHaB5-10" value="&lt;span style=&quot;font-size: 36px;&quot;&gt;&lt;b&gt;Front End - Angular&lt;/b&gt;&lt;/span&gt;" style="rounded=0;whiteSpace=wrap;html=1;" vertex="1" parent="1">
          <mxGeometry x="235" y="310" width="380" height="70" as="geometry" />
        </mxCell>
        <mxCell id="-IljqOQ8mpEZ_WBwHaB5-14" value="" style="edgeStyle=orthogonalEdgeStyle;rounded=0;orthogonalLoop=1;jettySize=auto;html=1;fontSize=36;" edge="1" parent="1" source="-IljqOQ8mpEZ_WBwHaB5-11" target="-IljqOQ8mpEZ_WBwHaB5-12">
          <mxGeometry relative="1" as="geometry" />
        </mxCell>
        <mxCell id="-IljqOQ8mpEZ_WBwHaB5-11" value="&lt;span style=&quot;font-size: 36px;&quot;&gt;&lt;b&gt;Back End - Node Js&lt;/b&gt;&lt;/span&gt;" style="rounded=0;whiteSpace=wrap;html=1;" vertex="1" parent="1">
          <mxGeometry x="170" y="470" width="510" height="70" as="geometry" />
        </mxCell>
        <mxCell id="-IljqOQ8mpEZ_WBwHaB5-12" value="&lt;span style=&quot;font-size: 36px;&quot;&gt;&lt;b&gt;Database - PostgreSQL&lt;/b&gt;&lt;/span&gt;" style="rounded=0;whiteSpace=wrap;html=1;" vertex="1" parent="1">
          <mxGeometry x="90" y="610" width="670" height="70" as="geometry" />
        </mxCell>
        <mxCell id="-IljqOQ8mpEZ_WBwHaB5-18" value="AWS S3 Bucket" style="whiteSpace=wrap;html=1;shape=mxgraph.basic.oval_callout;fontSize=36;" vertex="1" parent="1">
          <mxGeometry x="600" y="170" width="220" height="140" as="geometry" />
        </mxCell>
        <mxCell id="-IljqOQ8mpEZ_WBwHaB5-19" value="AWS Elastic Beans" style="whiteSpace=wrap;html=1;shape=mxgraph.basic.oval_callout;fontSize=36;" vertex="1" parent="1">
          <mxGeometry x="615" y="300" width="235" height="170" as="geometry" />
        </mxCell>
        <mxCell id="-IljqOQ8mpEZ_WBwHaB5-21" value="AWS RDS" style="whiteSpace=wrap;html=1;shape=mxgraph.basic.oval_callout;fontSize=36;" vertex="1" parent="1">
          <mxGeometry x="700" y="450" width="160" height="160" as="geometry" />
        </mxCell>
      </root>
    </mxGraphModel>
  </diagram>
</mxfile>
